<?xml version="1.0" encoding="utf-8"?>
<!-- Generator: Adobe Illustrator 18.1.1, SVG Export Plug-In . SVG Version: 6.00 Build 0)  -->
<svg version="1.1" id="Layer_1" xmlns="http://www.w3.org/2000/svg" xmlns:xlink="http://www.w3.org/1999/xlink" x="0px" y="0px"
	 viewBox="0 0 800 450" enable-background="new 0 0 800 450" xml:space="preserve">
<g>
	<path fill="#11a0d1" d="M221.2,7.4c0,1.9-0.1,4.1,0,6.3c1.1,23.8,3.2,47.7,3.3,71.5c0.2,61.6-0.3,123.2-0.7,184.8
		c0,5.2,0.9,7.1,6.7,5.6c18.8-4.8,37.8-5.6,56.9-1.4c43.1,9.4,75.9,33.6,100.5,69.6c18.8,27.5,26.4,58.9,31.7,91.2
		c0.5,3.3-0.1,7.6,5.3,7.5c6.2-0.2,3.9-5,3.9-7.9c0.1-107.2,0.1-214.4,0.1-321.6c0-2.1,0.4-4.4-0.3-6.2
		c-4.9-12.6-9.5-25.3-15.3-37.5c-8.6-18-23-30-43-32.4c-18.1-2.2-36.5-2.7-54.7-2.9c-18.3-0.2-36.3-2.2-53.3-8.4
		C248.4,20.6,235.3,13.8,221.2,7.4z M478.2,96.9c-5.1,2.4-9.6,4.9-14.5,6.6c-11.7,4.1-15.1,7.6-15.1,19.8
		c-0.2,102.2-0.1,204.5-0.2,306.7c0,4.2,1.6,5.5,5.6,5.4c5-0.2,10,0,15,0c9.2,0,9.2,0,9.2-9.3C478.2,316.5,478.2,207,478.2,96.9z
		 M606.5,69.8c-5.2,2.5-9.2,4.7-13.4,6.3c-14.3,5.5-16.1,7.9-16.1,23.4c0,25.6,0,51.2,0,76.8c0,33.7,0,67.5,0,101.2
		c0,9.5,0,9.5,9.8,9.5c4,0,8-0.4,11.9,0.1c6.4,0.9,8.1-1.3,8-7.7c-0.2-67.7-0.1-135.3-0.1-203C606.5,74.4,606.5,72.4,606.5,69.8z
		 M521.7,190.7c-7.9,3.4-15,6.1-21.8,9.4c-5.9,2.8-8.7,7.9-8.7,14.6c-0.1,39.9-0.3,79.8-0.4,119.8c-0.1,18.7,0.1,37.4,0,56.2
		c0,5.2,1.6,7.6,7.2,7.1c5.4-0.5,10.8-0.4,16.2,0c6.2,0.5,7.7-2.1,7.6-8c-0.2-63.8-0.1-127.7-0.1-191.5
		C521.7,195.8,521.7,193.4,521.7,190.7z M193.3,315.1c16.7-2.2,32-4.4,47.4-6.2c33.9-4.1,64.8,4.4,91.2,25.7
		c31.7,25.7,51.8,59.7,64.1,98.4c0.7,2.3,1.2,4.8,1.8,7.2c-0.2-37.8-11.8-71.6-37.5-99.1c-42.2-45.1-93.8-57.8-154.1-39.8
		c0-96.2,0-191.2,0-286.2c-0.7,0-1.4,0-2.1,0C200.5,115.2,196.9,215.5,193.3,315.1z M562.8,346.9c0-44.7,0-88.5,0-132.2
		c-6,2.6-11.7,5.2-17.5,7.3c-7.4,2.8-11.7,7.6-11.8,15.7c-0.1,9.6-0.3,19.1-0.3,28.7c0,24.5,0,49.1,0,73.6c0,3.1-0.6,6.7,4.2,6.8
		C545.8,347,554.1,346.9,562.8,346.9z"/>
	<path fill="#0D80C1" d="M221.2,7.4c14.1,6.4,27.2,13.2,41,18.3c17.1,6.3,35.1,8.2,53.3,8.4c18.3,0.2,36.6,0.7,54.7,2.9
		c20,2.4,34.4,14.4,43,32.4c5.8,12.1,10.4,24.9,15.3,37.5c0.7,1.8,0.3,4.1,0.3,6.2c0,107.2,0,214.4-0.1,321.6c0,3,2.3,7.7-3.9,7.9
		c-5.4,0.2-4.8-4.2-5.3-7.5c-5.4-32.2-12.9-63.6-31.7-91.2c-24.6-36-57.5-60.2-100.5-69.6c-19-4.1-38.1-3.4-56.9,1.4
		c-5.8,1.5-6.7-0.4-6.7-5.6c0.4-61.6,1-123.2,0.7-184.8c-0.1-23.9-2.1-47.7-3.3-71.5C221.1,11.5,221.2,9.3,221.2,7.4z"/>
	<path fill="#0D80C1" d="M478.2,96.9c0,110.1,0,219.6,0,329.2c0,9.3,0,9.3-9.2,9.3c-5,0-10-0.2-15,0c-3.9,0.2-5.6-1.2-5.6-5.4
		c0.1-102.2,0-204.5,0.2-306.7c0-12.1,3.5-15.7,15.1-19.8C468.6,101.8,473.1,99.2,478.2,96.9z"/>
	<path fill="#0D80C1" d="M606.5,69.8c0,2.6,0,4.6,0,6.6c0,67.7-0.1,135.3,0.1,203c0,6.4-1.7,8.6-8,7.7c-3.9-0.6-7.9-0.1-11.9-0.1
		c-9.7,0-9.8,0-9.8-9.5c0-33.7,0-67.5,0-101.2c0-25.6,0-51.2,0-76.8c0-15.5,1.8-17.9,16.1-23.4C597.4,74.5,601.4,72.3,606.5,69.8z"
		/>
	<path fill="#0D80C1" d="M521.7,190.7c0,2.8,0,5.2,0,7.5c0,63.8-0.1,127.7,0.1,191.5c0,5.9-1.4,8.5-7.6,8c-5.4-0.4-10.8-0.5-16.2,0
		c-5.6,0.5-7.2-1.9-7.2-7.1c0.1-18.7,0-37.4,0-56.2c0.1-39.9,0.3-79.8,0.4-119.8c0-6.7,2.8-11.7,8.7-14.6
		C506.7,196.8,513.8,194,521.7,190.7z"/>
	<path fill="#0D80C1" d="M193.3,315.1c3.6-99.6,7.1-199.9,10.7-300.2c0.7,0,1.4,0,2.1,0c0,95,0,190,0,286.2
		c60.2-18,111.8-5.3,154.1,39.8c25.8,27.5,37.4,61.3,37.5,99.1c-0.6-2.4-1-4.8-1.8-7.2c-12.3-38.7-32.4-72.7-64.1-98.4
		c-26.3-21.3-57.2-29.8-91.2-25.7C225.3,310.7,210,312.9,193.3,315.1z"/>
	<path fill="#0D80C1" d="M562.8,346.9c-8.8,0-17,0.1-25.3,0c-4.8,0-4.2-3.7-4.2-6.8c0-24.5,0-49.1,0-73.6c0-9.6,0.2-19.1,0.3-28.7
		c0.1-8.1,4.4-13,11.8-15.7c5.8-2.2,11.4-4.8,17.5-7.3C562.8,258.4,562.8,302.3,562.8,346.9z"/>
</g>
</svg>
